RLF brings you another POLISH release:

Sin.City.2005.PL.DVDRip.XviD-RLF

Complete name                    : rlf-scp.avi
Format                           : AVI
Format/Info                      : Audio Video Interleave
File size                        : 1.31 GiB
Duration                         : 1h 58mn
Overall bit rate                 : 1 580 Kbps
Encoder                          : Ralf


Format                           : MPEG-4 Visual
Format profile                   : Advanced Simple@L5
Format settings, BVOP            : 2
Format settings, QPel            : No
Format settings, GMC             : No warppoints
Format settings, Matrix          : Default (H.263)
Codec ID                         : XVID
Codec ID/Hint                    : XviD
Duration                         : 1h 58mn
Bit rate                         : 1 441 Kbps
Width                            : 720 pixels
Height                           : 384 pixels
Display aspect ratio             : 1.875
Frame rate                       : 25.000 fps
Color space                      : YUV
Chroma subsampling               : 4:2:0
Bit depth                        : 8 bits
Scan type                        : Progressive
Bits/(Pixel*Frame)               : 0.208
Stream size                      : 1.20 GiB (91%)
Writing library                  : XviD 1.2.1 (UTC 2008-12-04)

Format                           : AC-3
Format/Info                      : Audio Coding 3
Mode extension                   : CM (complete main)
Codec ID                         : 2000
Duration                         : 1h 58mn
Bit rate mode                    : Constant
Bit rate                         : 128 Kbps
Channel(s)                       : 6 channels
Channel positions                : Front: L C R, Side: L R, LFE
Sampling rate                    : 48.0 KHz
Bit depth                        : 16 bits
Stream size                      : 109 MiB (8%)
Alignment                        : Aligned on interleaves
Interleave, duration             : 32 ms (0.80 video frame)

SOURCE:

DvD R2 :) 


Ekranizacja trzech komiksów Franka Millera z serii "Sin City" - "Sin City", "Krwawa jatka" i "Ten żółty drań". Akcja filmu rozgrywa się w Basin City, zwanym Miastem Grzechu, które jest siedliskiem prostytutek, przestępców i wszelkiego rodzaju szumowin. Przedstawione są trzy zazębiające się historie. Głównym wątkiem filmu jest historia Marva (Mickey Rourke), twardziela, który stara się odnaleźć zabójców swojej kochanki Goldie (Jaime King). Równolegle ukazane są historie Dwighta (Clive Owen), który chroni znajome prostytutki z Old Town przed skorumpowanym gliną, zwanym Jackie Boy (Benicio Del Toro) - oraz emerytowanego policjanta Hartigana (Bruce Willis), który stara się chronić striptizerkę Nancy (Jessica Alba) przed psychopatą zwanym Juniorem lub Żółtym draniem (Nick Stahl).
 
http://www.leetleech.org/images/53478577928099929753.png 
http://www.leetleech.org/images/08303081211617418109.png 
http://www.leetleech.org/images/84858038504082211653.png 
http://www.leetleech.org/images/18452164234084406305.png